G04 PROTEUS GERBER X2 FILE*
%TF.GenerationSoftware,Labcenter,Proteus,8.5-SP0-Build22067*%
%TF.CreationDate,2017-03-24T16:45:38+00:00*%
%TF.FileFunction,Legend,Top*%
%TF.FilePolarity,Positive*%
%TF.Part,Single*%
%FSLAX45Y45*%
%MOMM*%
G01*
%TA.AperFunction,Profile*%
%ADD13C,0.203200*%
%TA.AperFunction,Material*%
%ADD15C,0.203200*%
D13*
X-20000Y+40000D02*
X+3050000Y+40000D01*
X+3050000Y+1850000D01*
X-20000Y+1850000D01*
X-20000Y+40000D01*
D15*
X+1394000Y+1153000D02*
X+1393173Y+1173483D01*
X+1386455Y+1214450D01*
X+1372437Y+1255417D01*
X+1349659Y+1296384D01*
X+1314859Y+1337229D01*
X+1273892Y+1368845D01*
X+1232925Y+1389392D01*
X+1191958Y+1401629D01*
X+1150991Y+1406762D01*
X+1140000Y+1407000D01*
X+886000Y+1153000D02*
X+886827Y+1173483D01*
X+893545Y+1214450D01*
X+907563Y+1255417D01*
X+930341Y+1296384D01*
X+965141Y+1337229D01*
X+1006108Y+1368845D01*
X+1047075Y+1389392D01*
X+1088042Y+1401629D01*
X+1129009Y+1406762D01*
X+1140000Y+1407000D01*
X+886000Y+1153000D02*
X+886827Y+1132517D01*
X+893545Y+1091550D01*
X+907563Y+1050583D01*
X+930341Y+1009616D01*
X+965141Y+968771D01*
X+1006108Y+937155D01*
X+1047075Y+916608D01*
X+1088042Y+904371D01*
X+1129009Y+899238D01*
X+1140000Y+899000D01*
X+1394000Y+1153000D02*
X+1393173Y+1132517D01*
X+1386455Y+1091550D01*
X+1372437Y+1050583D01*
X+1349659Y+1009616D01*
X+1314859Y+968771D01*
X+1273892Y+937155D01*
X+1232925Y+916608D01*
X+1191958Y+904371D01*
X+1150991Y+899238D01*
X+1140000Y+899000D01*
X+1394000Y+1470500D02*
X+1394000Y+1343500D01*
X+1457500Y+1407000D02*
X+1330500Y+1407000D01*
X+1589580Y+1057750D02*
X+1498140Y+1057750D01*
X+1498140Y+1121250D01*
X+1528620Y+1153000D01*
X+1559100Y+1153000D01*
X+1589580Y+1121250D01*
X+1589580Y+1057750D01*
X+1528620Y+1216500D02*
X+1498140Y+1248250D01*
X+1589580Y+1248250D01*
X+1851000Y+289000D02*
X+2867000Y+289000D01*
X+2867000Y+797000D01*
X+1851000Y+797000D01*
X+1851000Y+289000D01*
X+2232000Y+187400D02*
X+2232000Y+172160D01*
X+2247875Y+156920D01*
X+2311375Y+156920D01*
X+2327250Y+172160D01*
X+2327250Y+248360D01*
X+2390750Y+217880D02*
X+2422500Y+248360D01*
X+2422500Y+156920D01*
X+1897000Y+1400000D02*
X+2024000Y+1400000D01*
X+2024000Y+1336500D02*
X+2532000Y+1336500D01*
X+2532000Y+1463500D01*
X+2024000Y+1463500D01*
X+2024000Y+1336500D01*
X+2532000Y+1400000D02*
X+2659000Y+1400000D01*
X+2151000Y+1504140D02*
X+2151000Y+1595580D01*
X+2230375Y+1595580D01*
X+2246250Y+1580340D01*
X+2246250Y+1565100D01*
X+2230375Y+1549860D01*
X+2151000Y+1549860D01*
X+2230375Y+1549860D02*
X+2246250Y+1534620D01*
X+2246250Y+1504140D01*
X+2309750Y+1565100D02*
X+2341500Y+1595580D01*
X+2341500Y+1504140D01*
M02*
